<svg width="38" height="38" viewBox="0 0 38 38" fill="none" xmlns="http://www.w3.org/2000/svg">
<path fill-rule="evenodd" clip-rule="evenodd" d="M10.2999 6.72981C7.92316 9.14916 5.96148 13.4408 4.90822 16.7862C4.5765 17.8398 3.45349 18.4249 2.39991 18.0932C1.34632 17.7615 0.761137 16.6385 1.09285 15.5849C2.21 12.0367 4.40549 7.02211 7.44644 3.92663C8.9787 2.36689 10.9537 1.06488 13.3107 1.00235C15.7327 0.938104 17.9949 2.19127 20.0348 4.53089C21.2747 5.95302 22.1162 7.36056 22.4063 8.79078C22.716 10.3183 22.3568 11.6765 21.5748 12.8024C20.8467 13.851 19.7939 14.6429 18.7641 15.2717C17.7202 15.9092 16.5281 16.4792 15.401 17.0079C15.3143 17.0485 15.2281 17.0889 15.1424 17.1291C12.858 18.1997 10.9027 19.116 9.65479 20.2984C9.05532 20.8665 8.72603 21.4052 8.58999 21.9485C8.45688 22.48 8.45799 23.217 8.87148 24.2804C9.69994 26.4109 11.7738 28.4488 14.6755 30.0557C17.5424 31.6434 20.9779 32.6724 24.1393 32.9342C27.368 33.2015 29.9463 32.6451 31.4235 31.505C32.1208 30.9669 32.5999 30.2836 32.8348 29.3959C33.0764 28.4827 33.091 27.2275 32.6263 25.5346C31.7572 22.3681 29.8363 20.8579 27.6231 20.2348C25.2822 19.5758 22.4963 19.8954 20.2006 20.7571C19.0648 21.1834 18.138 21.7103 17.5041 22.2275C17.189 22.4847 16.9768 22.7146 16.8459 22.8982C16.791 22.9752 16.756 23.0362 16.7338 23.0809C16.7669 23.1107 16.8159 23.1504 16.8872 23.2007C17.3516 23.5285 18.3771 23.9569 20.3212 24.2431C21.414 24.4039 22.1695 25.4202 22.0086 26.513C21.8477 27.6058 20.8314 28.3613 19.7387 28.2004C17.5506 27.8783 15.7978 27.3278 14.5807 26.4688C13.259 25.536 12.4667 24.1268 12.7583 22.4762C13.0074 21.0658 13.9842 19.9371 14.9753 19.1284C16.0171 18.2782 17.3481 17.5553 18.7949 17.0122C21.6643 15.9352 25.3427 15.4374 28.707 16.3845C32.1989 17.3676 35.2241 19.8871 36.4836 24.4758C37.0833 26.6606 37.1683 28.6557 36.7017 30.4191C36.2283 32.2079 35.2205 33.6274 33.8674 34.6717C31.2437 36.6965 27.4673 37.2234 23.8092 36.9205C20.0837 36.6121 16.1001 35.4171 12.7376 33.5549C9.40967 31.7119 6.44363 29.0738 5.14341 25.7301C4.49257 24.0563 4.33716 22.4648 4.70981 20.9768C5.07952 19.5004 5.91826 18.3285 6.90355 17.3949C8.64275 15.7469 11.1611 14.5722 13.2278 13.6082C13.389 13.533 13.5474 13.4591 13.7025 13.3864C14.8448 12.8506 15.848 12.3656 16.6794 11.8579C17.5249 11.3416 18.0275 10.8979 18.2893 10.5209C18.4974 10.2212 18.5627 9.96371 18.4861 9.58573C18.3897 9.1104 18.0338 8.32253 17.0198 7.15958C15.4535 5.36307 14.2431 4.97903 13.4168 5.00095C12.5255 5.02459 11.4765 5.53213 10.2999 6.72981ZM16.6714 23.012C16.6726 23.0121 16.6779 23.0184 16.6837 23.0306C16.6732 23.018 16.6702 23.0119 16.6714 23.012Z" fill="#111111" stroke="black" stroke-linecap="round" stroke-linejoin="round"/>
</svg>
